# xmcd
#
# Track frame offsets:
#	151
#	15682
#	30048
#	48051
#	66536
#	84063
#	102193
#	120190
#	138303
#	159278
#	177243
#	191698
#	205133
#	216802
#	236590
#	258435
#	272437
#	289006
#
# Disc length: 4079 seconds
#
# Revision: 1
# Processed by: cddbd v1.5.1PL0 Copyright (c) Steve Scherf et al.
# Submitted via: audiograbber 1.83.01
#
DISCID=e50fed12
DTITLE=Saxophon - Ronantic Sax
DYEAR=2002
DGENRE=Instrumental
TTITLE0=Heartbreaker
TTITLE1=Stand by me
TTITLE2=How deep is your love
TTITLE3=Your song
TTITLE4=Holding back the years
TTITLE5=Song Bird
TTITLE6=theme from dying young
TTITLE7=Cry me a river
TTITLE8=Year of the cat
TTITLE9=Try a little tenderness
TTITLE10=Mornign dew
TTITLE11=Annie´s song
TTITLE12=Don´t it make my brown eyes blue
TTITLE13=Tradewinds
TTITLE14=Forever in love
TTITLE15=Evergreen love theme from a star is born
TTITLE16=We´ve only just begun
TTITLE17=Candle in the wind
EXTD=
EXTT0=
EXTT1=
EXTT2=
EXTT3=
EXTT4=
EXTT5=
EXTT6=
EXTT7=
EXTT8=
EXTT9=
EXTT10=
EXTT11=
EXTT12=
EXTT13=
EXTT14=
EXTT15=
EXTT16=
EXTT17=
PLAYORDER=
